<svg width="236" height="109" viewBox="0 0 236 109" fill="none" xmlns="http://www.w3.org/2000/svg">
<rect width="236" height="109" rx="54.5" fill="white"/>
<path d="M116.292 29.1194C116.226 28.9456 116.059 28.8331 115.873 28.8331H111.575C111.388 28.8331 111.222 28.9481 111.155 29.1194L102.435 51.5885C102.319 51.8824 102.537 52.1993 102.854 52.1993H106.717C106.909 52.1993 107.08 52.0766 107.144 51.8952L108.775 47.088H118.675L120.306 51.8952C120.367 52.0766 120.539 52.1993 120.733 52.1993H124.596C124.913 52.1993 125.131 51.8824 125.016 51.5885L116.295 29.1194H116.292ZM113.723 43.4437H110.18L113.295 34.3967C113.433 33.993 114.007 33.993 114.147 34.3967L117.263 43.4437H113.72H113.723Z" fill="#2D8341"/>
<path d="M140.519 35.2018V37.4993C139.045 35.5314 136.818 34.2766 134.322 34.2766C129.884 34.2766 126.285 38.2506 126.285 43.1549C126.285 48.0592 129.884 52.0332 134.322 52.0332C136.815 52.0332 139.045 50.7784 140.519 48.8105V51.7393C140.519 53.0426 139.488 54.4559 138.385 55.0744C137.141 55.7721 135.656 55.9714 134.251 55.813C132.7 55.6392 131.225 55.059 129.828 54.3614C129.6 54.2464 129.318 54.3409 129.213 54.5735C128.852 55.3632 128.507 56.1631 128.159 56.9579C128.056 57.1904 128.166 57.4639 128.405 57.5559C132.718 59.2324 138.625 60.1499 142.298 56.7637C143.642 55.5267 144.476 53.8272 144.551 52.0025H144.558V35.2018C144.558 34.9539 144.356 34.752 144.108 34.752H140.97C140.721 34.752 140.519 34.9539 140.519 35.2018ZM135.653 48.4425C132.966 48.4425 130.785 46.0734 130.785 43.1523C130.785 40.2313 132.963 37.8622 135.653 37.8622C138.344 37.8622 140.522 40.2313 140.522 43.1523C140.522 46.0734 138.344 48.4425 135.653 48.4425Z" fill="#2D8341"/>
<path d="M156.939 34.4632C156.913 34.4632 156.888 34.4632 156.865 34.4683C155.828 34.6216 154.866 35.1123 154.123 35.8509C153.855 36.1192 153.619 36.4183 153.407 36.7326C153.292 36.9013 153.184 37.0776 153.089 37.2565C153.069 37.2923 153.038 37.3434 153.005 37.3971V35.2018C153.005 34.9539 152.803 34.752 152.554 34.752H148.92C148.671 34.752 148.469 34.9539 148.469 35.2018V51.7495C148.469 51.9974 148.671 52.1993 148.92 52.1993H152.554C152.803 52.1993 153.005 51.9974 153.005 51.7495V42.217C153.005 42.1684 153.013 42.1199 153.025 42.0739C153.205 41.5116 153.458 40.9673 153.796 40.4894C154.267 39.8198 154.715 39.2295 155.452 38.8231C156.146 38.4423 156.896 38.381 157.671 38.4193C158.045 38.4372 158.38 38.4909 158.667 38.5548C158.953 38.6187 159.212 38.404 159.212 38.1178V34.913C159.212 34.6651 159.01 34.4632 158.762 34.4632H156.937H156.939Z" fill="#2D8341"/>
<path d="M169.753 34.4555C164.488 34.4555 160.221 38.5036 160.221 43.4974C160.221 48.4911 164.488 52.5392 169.753 52.5392C175.018 52.5392 179.285 48.4911 179.285 43.4974C179.285 38.5036 175.018 34.4555 169.753 34.4555ZM169.753 48.7952C166.384 48.7952 164.854 46.4236 164.854 43.4999C164.854 40.5763 166.553 38.2046 169.753 38.2046C173.129 38.2046 174.652 40.5763 174.652 43.4999C174.652 46.4236 173.034 48.7952 169.753 48.7952Z" fill="#2D8341"/>
<path d="M119.86 79.5113L114.692 71.9339C117.385 70.9704 119.361 68.5272 119.361 65.279C119.361 60.8833 116 58.1693 112.066 58.1693H102.637C102.388 58.1693 102.186 58.3711 102.186 58.619V79.7669C102.186 80.0148 102.388 80.2167 102.637 80.2167H106.061C106.31 80.2167 106.512 80.0148 106.512 79.7669V72.3888H110.464L115.238 80.0046C115.32 80.1349 115.463 80.2167 115.619 80.2167H119.487C119.847 80.2167 120.062 79.8129 119.858 79.5139L119.86 79.5113ZM106.512 61.7931H108.583H111.403C113.369 61.7931 115.051 63.1502 115.051 65.348C115.051 67.5459 113.369 68.9029 111.403 68.9029H106.512V61.7931Z" fill="#2D8341"/>
<path d="M137.217 70.4695C137.217 66.1173 133.073 63.807 129.886 63.807C124.401 63.807 121.478 67.3619 121.478 72.2022C121.478 77.4157 124.872 80.5975 129.886 80.5975C132.868 80.5975 135.264 79.7465 136.708 77.9039C136.849 77.725 136.836 77.472 136.68 77.3084L134.937 75.5143C134.763 75.3354 134.478 75.3329 134.299 75.5067C133.211 76.5698 131.839 77.3902 130.158 77.3902C127.281 77.3902 125.673 75.8185 125.233 73.411H136.767C137.015 73.411 137.217 73.2092 137.217 72.9613V70.4721V70.4695ZM125.248 70.4695C125.712 68.1746 127.306 66.7051 129.802 66.7051C132.298 66.7051 133.449 68.908 133.449 70.4695H125.248Z" fill="#2D8341"/>
<path d="M152.744 58.0185V66.838C151.38 64.9749 149.314 63.7891 147.005 63.7891C142.895 63.7891 139.562 67.551 139.562 72.1895C139.562 76.8279 142.895 80.5898 147.005 80.5898C149.314 80.5898 151.377 79.404 152.744 77.5409V79.7644C152.744 80.0122 152.946 80.2141 153.195 80.2141H156.381C156.63 80.2141 156.832 80.0122 156.832 79.7644V58.0185C156.832 57.7706 156.63 57.5687 156.381 57.5687H153.195C152.946 57.5687 152.744 57.7706 152.744 58.0185ZM148.237 77.1934C145.746 77.1934 143.729 74.9521 143.729 72.1895C143.729 69.4268 145.746 67.1855 148.237 67.1855C150.727 67.1855 152.744 69.4268 152.744 72.1895C152.744 74.9521 150.727 77.1934 148.237 77.1934Z" fill="#2D8341"/>
<path d="M175.322 58.1667C175.074 58.1667 174.872 58.3686 174.872 58.6165V72.5089C174.872 75.1719 172.537 76.9557 169.655 76.9557C166.773 76.9557 164.439 75.0824 164.439 72.5089V58.6165C164.439 58.3686 164.237 58.1667 163.988 58.1667H160.612C160.364 58.1667 160.162 58.3686 160.162 58.6165V70.4695V72.4425C160.162 72.4655 160.162 72.4885 160.162 72.5115C160.162 77.1985 164.411 80.6077 169.653 80.6077C174.895 80.6077 179.144 77.3569 179.144 72.5115V58.619C179.144 58.3711 178.942 58.1692 178.693 58.1692H175.317L175.322 58.1667Z" fill="#2D8341"/>
<path d="M181.292 64.5813L187.565 79.8078C187.611 79.9177 187.611 80.0404 187.565 80.1503L185.1 86.0921C184.977 86.3886 185.195 86.7131 185.515 86.7131H188.86C189.045 86.7131 189.211 86.6007 189.278 86.4295L197.968 64.5737C198.085 64.2798 197.868 63.9578 197.55 63.9578H194.297C194.11 63.9578 193.941 64.0728 193.875 64.2491L189.828 75.0211L185.709 64.2466C185.643 64.0728 185.477 63.9578 185.29 63.9578H181.706C181.386 63.9578 181.169 64.2823 181.289 64.5788L181.292 64.5813Z" fill="#2D8341"/>
<path d="M90.7366 48.3249C90.7366 65.0592 70.4925 82.8643 65.4807 86.6288C64.8229 87.1246 63.9142 87.1246 63.2564 86.6288C58.2446 82.8669 38.0005 65.072 38.0005 48.3249C38.0005 33.7859 49.8055 21.9994 64.3673 21.9994C78.929 21.9994 90.734 33.7859 90.734 48.3249H90.7366Z" fill="#F67F2D"/>
<path d="M51.5228 64.221C48.7763 64.221 46.0862 64.4612 43.4702 64.9212C49.8411 75.407 59.921 84.1243 63.2536 86.6288C63.9114 87.1246 64.8201 87.1246 65.4779 86.6288C67.8584 84.8399 73.679 79.8819 79.131 73.3753C71.4316 67.6251 61.8765 64.2184 51.5228 64.2184V64.221Z" fill="#2D8341"/>
<mask id="mask0_0_22" style="mask-type:luminance" maskUnits="userSpaceOnUse" x="43" y="64" width="37" height="24">
<path d="M51.5228 64.221C48.7763 64.221 46.0862 64.4612 43.4702 64.9212C49.8411 75.407 59.921 84.1243 63.2536 86.6288C63.9114 87.1246 64.8201 87.1246 65.4779 86.6288C67.8584 84.8399 73.679 79.8819 79.131 73.3753C71.4316 67.6251 61.8765 64.2184 51.5228 64.2184V64.221Z" fill="white"/>
</mask>
<g mask="url(#mask0_0_22)">
<path d="M43.7388 67.1932C45.5971 66.6872 48.0697 66.2119 51.003 66.1837C54.909 66.1454 58.1034 66.9198 60.2535 67.6277C59.158 68.3126 58.0625 68.9975 56.9644 69.685C55.3723 69.2633 53.2273 68.862 50.6779 68.8544C48.4715 68.8467 46.58 69.1355 45.1133 69.4677C44.6551 68.7113 44.1969 67.9522 43.7413 67.1958L43.7388 67.1932Z" fill="#60A646"/>
<path d="M46.3779 71.0164C47.517 70.9014 48.7226 70.812 49.9921 70.7634C51.5381 70.7046 52.9997 70.7123 54.364 70.7634C52.8692 71.8751 51.3769 72.9868 49.8821 74.0985C48.7149 73.0712 47.5451 72.0438 46.3779 71.0164Z" fill="#60A646"/>
</g>
<path d="M80.1624 61.2743C68.3139 61.2743 57.5097 65.7365 49.3394 73.066C54.8682 79.726 60.8372 84.8117 63.2561 86.6288C63.9139 87.1246 64.8226 87.1246 65.4804 86.6288C69.1432 83.8789 80.938 73.6308 87.0248 61.7804C84.7851 61.4481 82.4968 61.2718 80.165 61.2718L80.1624 61.2743Z" fill="#2D8341"/>
<mask id="mask1_0_22" style="mask-type:luminance" maskUnits="userSpaceOnUse" x="49" y="61" width="39" height="27">
<path d="M80.1624 61.2743C68.3139 61.2743 57.5097 65.7365 49.3394 73.066C54.8682 79.726 60.8372 84.8117 63.2561 86.6288C63.9139 87.1246 64.8226 87.1246 65.4804 86.6288C69.1432 83.8789 80.938 73.6308 87.0248 61.7804C84.7851 61.4481 82.4968 61.2718 80.165 61.2718L80.1624 61.2743Z" fill="white"/>
</mask>
<g mask="url(#mask1_0_22)">
<path d="M74.8332 65.8719C76.2231 65.3378 77.5157 64.888 78.6829 64.5149C79.1744 64.3564 79.0515 63.6306 78.537 63.6383C73.771 63.7048 70.1005 64.6759 67.7533 65.486C63.7782 66.8584 60.9011 68.6959 58.0216 70.536C54.3562 72.8795 51.5252 75.2026 49.5415 76.9813C51.0517 77.8783 52.5619 78.7779 54.0695 79.6749C58.8637 74.4691 63.4301 71.4458 66.4044 69.7642C69.9366 67.7657 73.4587 66.3984 74.8358 65.8668L74.8332 65.8719Z" fill="#60A646"/>
<path d="M82.2742 65.808C81.1223 66.0713 79.7734 66.4444 78.3016 66.9785C74.3623 68.4097 71.6875 70.2293 69.1484 71.9825C68.1168 72.6929 65.2065 74.7553 61.8739 77.9959C60.0386 79.7823 58.5797 81.4332 57.4893 82.7596C58.5003 84.1984 59.5139 85.6372 60.525 87.076C61.8406 85.3893 63.7066 83.125 66.1152 80.5949C67.5409 79.0948 68.9462 77.7838 71.7515 75.1591C77.1575 70.1066 78.9492 68.7675 80.2802 67.8474C81.0942 67.2852 81.8493 66.7996 82.5148 66.3907C82.8219 66.2016 82.6274 65.7314 82.2767 65.8106L82.2742 65.808Z" fill="#60A646"/>
</g>
<path d="M66.3638 52.0204C64.357 54.1825 63.3076 57.9162 63.2692 58.2383C63.4663 56.6742 64.6667 50.4231 61.7897 44.8723C59.9007 41.2228 57.167 39.3547 56.1022 38.5522C53.97 36.9447 51.9172 36.04 50.4659 35.5212C49.6903 37.0239 47.9907 41.458 48.4924 46.1476C48.9122 50.096 50.4633 51.8057 50.8063 52.3296C53.5938 56.5745 57.9554 58.274 59.4272 58.7571C59.2608 56.3931 58.9639 54.9032 58.2011 52.3041C57.4665 49.7996 56.2558 46.9015 55.4162 44.9847C57.2515 47.2644 59.7983 51.0799 61.1268 56.3496C61.718 58.6932 61.8614 60.5613 61.9945 62.6263C63.3741 60.385 65.2862 57.6402 67.5233 55.6264C69.0616 54.2412 70.5744 53.1934 71.8951 52.4165C70.8636 53.495 69.8116 54.6348 68.7519 55.8436C67.6845 57.0601 66.6812 58.2587 65.7418 59.4266C67.5028 59.5646 70.9685 59.5749 74.4624 56.3956C77.6697 53.4797 78.993 49.061 79.1363 48.0745C78.3838 47.9544 71.1042 46.9168 66.3689 52.0204H66.3638Z" fill="white"/>
<path d="M65.4851 44.9503C66.6271 44.6812 67.3343 43.5388 67.0648 42.3986C66.7953 41.2584 65.651 40.5523 64.5091 40.8214C63.3671 41.0905 62.6599 42.2329 62.9294 43.3731C63.1989 44.5133 64.3432 45.2194 65.4851 44.9503Z" fill="white"/>
<path d="M70.5922 44.4046H73.7431C73.7431 38.864 69.2304 34.3584 63.6812 34.3584V37.5044C67.4976 37.5044 70.5922 40.5942 70.5922 44.4046Z" fill="white"/>
<path d="M77.0093 44.4046H80.3368C80.3368 35.235 72.8652 27.7725 63.6787 27.7725V31.0949C71.0274 31.0949 77.0093 37.0648 77.0093 44.4046Z" fill="white"/>
</svg>
