<svg width="316" height="85" viewBox="0 0 316 85" fill="none" xmlns="http://www.w3.org/2000/svg">
<g clip-path="url(#clip0_218_529)">
<path d="M68 34.4258C68 56.3091 41.8964 79.5927 35.4341 84.5154C34.5858 85.1638 33.4142 85.1638 32.5659 84.5154C26.1036 79.596 0 56.3258 0 34.4258C0 15.4132 15.2219 0 33.9984 0C52.7748 0 67.9967 15.4132 67.9967 34.4258H68Z" fill="#F67F2D"/>
<path d="M17.4366 55.2128C13.8951 55.2128 10.4263 55.527 7.05322 56.1285C15.2681 69.8407 28.2655 81.2402 32.5627 84.5153C33.4109 85.1637 34.5826 85.1637 35.4308 84.5153C38.5003 82.1759 46.0056 75.6925 53.0357 67.1838C43.1078 59.6643 30.7871 55.2095 17.4366 55.2095V55.2128Z" fill="#2D8341"/>
<mask id="mask0_218_529" style="mask-type:luminance" maskUnits="userSpaceOnUse" x="7" y="55" width="47" height="31">
<path d="M17.4366 55.2128C13.8951 55.2128 10.4263 55.527 7.05322 56.1285C15.2681 69.8407 28.2655 81.2402 32.5627 84.5153C33.4109 85.1637 34.5826 85.1637 35.4308 84.5153C38.5003 82.1759 46.0056 75.6925 53.0357 67.1838C43.1078 59.6643 30.7871 55.2095 17.4366 55.2095V55.2128Z" fill="white"/>
</mask>
<g mask="url(#mask0_218_529)">
<path d="M7.39966 59.0996C9.79581 58.4379 12.9841 57.8163 16.7664 57.7795C21.803 57.7294 25.922 58.742 28.6944 59.6677C27.2818 60.5634 25.8692 61.459 24.4533 62.358C22.4004 61.8066 19.6346 61.2819 16.3473 61.2719C13.5023 61.2618 11.0632 61.6395 9.17202 62.0739C8.58123 61.0847 7.99045 60.0922 7.40296 59.1029L7.39966 59.0996Z" fill="#60A646"/>
<path d="M10.8025 64.0992C12.2712 63.9488 13.8257 63.8318 15.4628 63.7683C17.4563 63.6914 19.3409 63.7015 21.1 63.7683C19.1725 65.2221 17.2483 66.6758 15.3209 68.1296C13.8158 66.7861 12.3075 65.4426 10.8025 64.0992Z" fill="#60A646"/>
</g>
<path d="M54.3658 51.3595C39.0879 51.3595 25.1565 57.1946 14.6213 66.7795C21.7504 75.4887 29.4471 82.1392 32.5661 84.5154C33.4143 85.1637 34.586 85.1637 35.4342 84.5154C40.1572 80.9194 55.3659 67.518 63.2145 52.0213C60.3265 51.5868 57.3759 51.3562 54.3691 51.3562L54.3658 51.3595Z" fill="#2D8341"/>
<mask id="mask1_218_529" style="mask-type:luminance" maskUnits="userSpaceOnUse" x="14" y="51" width="50" height="35">
<path d="M54.3658 51.3595C39.0879 51.3595 25.1565 57.1946 14.6213 66.7795C21.7504 75.4887 29.4471 82.1392 32.5661 84.5154C33.4143 85.1637 34.586 85.1637 35.4342 84.5154C40.1572 80.9194 55.3659 67.518 63.2145 52.0213C60.3265 51.5868 57.3759 51.3562 54.3691 51.3562L54.3658 51.3595Z" fill="white"/>
</mask>
<g mask="url(#mask1_218_529)">
<path d="M47.4942 57.3718C49.2864 56.6733 50.9531 56.0851 52.4582 55.5972C53.0919 55.39 52.9334 54.4409 52.27 54.4509C46.1245 54.5378 41.3916 55.8077 38.3651 56.8671C33.2394 58.6618 29.5297 61.0647 25.8166 63.4709C21.0903 66.5355 17.44 69.5734 14.8821 71.8994C16.8294 73.0724 18.7767 74.2488 20.7206 75.4218C26.9025 68.6142 32.7905 64.6606 36.6257 62.4616C41.1804 59.8482 45.7219 58.0602 47.4975 57.3651L47.4942 57.3718Z" fill="#60A646"/>
<path d="M57.0888 57.2882C55.6036 57.6324 53.8642 58.1204 51.9664 58.8188C46.887 60.6904 43.4379 63.0698 40.1639 65.3624C38.8338 66.2915 35.0811 68.9885 30.7839 73.2261C28.4174 75.5622 26.5361 77.7211 25.1301 79.4556C26.4338 81.3371 27.7408 83.2187 29.0445 85.1002C30.741 82.8945 33.147 79.9335 36.2528 76.6249C38.0912 74.6632 39.9031 72.9487 43.5205 69.5165C50.4911 62.9094 52.8014 61.1582 54.5177 59.9551C55.5672 59.2199 56.5409 58.5849 57.399 58.0502C57.7951 57.8029 57.5442 57.188 57.0921 57.2916L57.0888 57.2882Z" fill="#60A646"/>
</g>
<path d="M36.5728 39.2583C33.9852 42.0857 32.632 46.9683 32.5825 47.3894C32.8367 45.3441 34.3846 37.1696 30.6748 29.9108C28.2391 25.1385 24.7141 22.6955 23.3411 21.6461C20.5918 19.544 17.9448 18.3609 16.0735 17.6825C15.0734 19.6476 12.8819 25.4459 13.5288 31.5785C14.0701 36.7418 16.0702 38.9776 16.5124 39.6627C20.1067 45.2138 25.7307 47.4362 27.6285 48.0678C27.4139 44.9765 27.0311 43.0281 26.0475 39.6293C25.1003 36.3542 23.5392 32.5643 22.4566 30.0579C24.8231 33.0389 28.107 38.0285 29.82 44.9197C30.5824 47.9843 30.7672 50.4272 30.9389 53.1276C32.7178 50.1966 35.1833 46.6074 38.0679 43.9739C40.0515 42.1625 42.0021 40.7923 43.7052 39.7763C42.3751 41.1867 41.0186 42.6772 39.6522 44.2579C38.2759 45.8487 36.9821 47.4161 35.7708 48.9434C38.0415 49.1239 42.5104 49.1372 47.0156 44.9798C51.1511 41.1666 52.8574 35.3883 53.0423 34.0983C52.0719 33.9412 42.6853 32.5844 36.5794 39.2583H36.5728Z" fill="white"/>
<path d="M35.4401 30.0128C36.9125 29.6609 37.8245 28.1669 37.477 26.6759C37.1294 25.1849 35.654 24.2615 34.1815 24.6134C32.7091 24.9653 31.7971 26.4593 32.1447 27.9503C32.4922 29.4413 33.9676 30.3647 35.4401 30.0128Z" fill="white"/>
<path d="M42.0251 29.2992H46.088C46.088 22.0538 40.2692 16.1619 33.1138 16.1619V20.2758C38.0348 20.2758 42.0251 24.3163 42.0251 29.2992Z" fill="white"/>
<path d="M50.2995 29.2992H54.5902C54.5902 17.3082 44.9561 7.54956 33.1106 7.54956V11.8941C42.5863 11.8941 50.2995 19.701 50.2995 29.2992Z" fill="white"/>
</g>
<g clip-path="url(#clip1_218_529)">
<path d="M105.066 24.3598C104.979 24.1414 104.763 24 104.52 24H98.9296C98.6866 24 98.4702 24.1446 98.3836 24.3598L87.0401 52.606C86.8903 52.9755 87.1733 53.3739 87.5862 53.3739H92.6103C92.86 53.3739 93.0831 53.2197 93.1663 52.9915L95.2872 46.9484H108.166L110.286 52.9915C110.366 53.2197 110.589 53.3739 110.842 53.3739H115.867C116.279 53.3739 116.562 52.9755 116.413 52.606L105.066 24.3598ZM101.726 42.3703H97.1184L101.17 30.9973C101.35 30.4897 102.096 30.4897 102.279 30.9973L106.331 42.3703H101.723H101.726Z" fill="#2D8341"/>
<path d="M136.582 32.0093V34.8975C134.665 32.4238 131.768 30.8463 128.522 30.8463C122.749 30.8463 118.067 35.8421 118.067 42.0073C118.067 48.1725 122.749 53.1683 128.522 53.1683C131.765 53.1683 134.665 51.5908 136.582 49.117V52.7988C136.582 54.4373 135.241 56.2139 133.806 56.9914C132.188 57.8685 130.257 58.1191 128.429 57.9199C126.411 57.7014 124.493 56.9721 122.675 56.095C122.379 55.9505 122.013 56.0693 121.876 56.3617C121.407 57.3544 120.957 58.36 120.505 59.3592C120.371 59.6515 120.515 59.9953 120.824 60.1109C126.434 62.2185 134.119 63.3719 138.896 59.115C140.644 57.56 141.73 55.4236 141.826 53.1297H141.836V32.0093C141.836 31.6977 141.573 31.4439 141.25 31.4439H137.168C136.846 31.4439 136.582 31.6977 136.582 32.0093ZM130.25 48.6544C126.754 48.6544 123.917 45.6762 123.917 42.0041C123.917 38.3319 126.751 35.3538 130.25 35.3538C133.749 35.3538 136.582 38.3319 136.582 42.0041C136.582 45.6762 133.749 48.6544 130.25 48.6544Z" fill="#2D8341"/>
<path d="M157.938 31.0808C157.904 31.0808 157.871 31.0808 157.841 31.0872C156.493 31.28 155.241 31.8968 154.275 32.8253C153.926 33.1626 153.619 33.5385 153.343 33.9337C153.193 34.1457 153.053 34.3674 152.93 34.5923C152.903 34.6373 152.863 34.7015 152.82 34.769V32.0093C152.82 31.6977 152.557 31.4438 152.234 31.4438H147.506C147.183 31.4438 146.92 31.6977 146.92 32.0093V52.8116C146.92 53.1233 147.183 53.3771 147.506 53.3771H152.234C152.557 53.3771 152.82 53.1233 152.82 52.8116V40.8282C152.82 40.7671 152.83 40.7061 152.847 40.6483C153.08 39.9415 153.41 39.2572 153.849 38.6564C154.462 37.8147 155.044 37.0725 156.003 36.5617C156.905 36.083 157.881 36.0059 158.89 36.0541C159.376 36.0766 159.812 36.144 160.185 36.2244C160.558 36.3047 160.894 36.0348 160.894 35.675V31.6462C160.894 31.3346 160.631 31.0808 160.308 31.0808H157.934H157.938Z" fill="#2D8341"/>
<path d="M174.605 31.0712C167.756 31.0712 162.206 36.1601 162.206 42.4378C162.206 48.7154 167.756 53.8043 174.605 53.8043C181.453 53.8043 187.004 48.7154 187.004 42.4378C187.004 36.1601 181.453 31.0712 174.605 31.0712ZM174.605 49.0977C170.223 49.0977 168.232 46.1163 168.232 42.441C168.232 38.7656 170.443 35.7842 174.605 35.7842C178.996 35.7842 180.977 38.7656 180.977 42.441C180.977 46.1163 178.873 49.0977 174.605 49.0977Z" fill="#2D8341"/>
<path d="M214.355 52.9466L207.633 43.4209C211.136 42.2097 213.706 39.1383 213.706 35.055C213.706 29.5291 209.334 26.1172 204.217 26.1172H191.951C191.628 26.1172 191.365 26.371 191.365 26.6826V53.2678C191.365 53.5795 191.628 53.8333 191.951 53.8333H196.406C196.729 53.8333 196.992 53.5795 196.992 53.2678V43.9927H202.133L208.342 53.5666C208.449 53.7305 208.635 53.8333 208.838 53.8333H213.869C214.338 53.8333 214.618 53.3257 214.352 52.9498L214.355 52.9466ZM196.995 30.6728H199.689H203.358C205.915 30.6728 208.102 32.3788 208.102 35.1417C208.102 37.9046 205.915 39.6106 203.358 39.6106H196.995V30.6728Z" fill="#2D8341"/>
<path d="M236.935 41.58C236.935 36.1088 231.545 33.2045 227.4 33.2045C220.265 33.2045 216.463 37.6734 216.463 43.7582C216.463 50.3122 220.878 54.312 227.4 54.312C231.279 54.312 234.395 53.2422 236.273 50.9258C236.456 50.7009 236.439 50.3829 236.236 50.1772L233.969 47.9219C233.743 47.697 233.373 47.6938 233.14 47.9123C231.725 49.2488 229.94 50.2801 227.753 50.2801C224.011 50.2801 221.92 48.3042 221.347 45.2779H236.349C236.672 45.2779 236.935 45.024 236.935 44.7124V41.5832V41.58ZM221.367 41.58C221.97 38.695 224.044 36.8477 227.29 36.8477C230.536 36.8477 232.035 39.617 232.035 41.58H221.367Z" fill="#2D8341"/>
<path d="M257.132 25.9276V37.0147C255.357 34.6726 252.671 33.1819 249.667 33.1819C244.32 33.1819 239.985 37.9111 239.985 43.7421C239.985 49.5732 244.32 54.3023 249.667 54.3023C252.671 54.3023 255.354 52.8116 257.132 50.4696V53.2646C257.132 53.5763 257.395 53.8301 257.718 53.8301H261.863C262.186 53.8301 262.449 53.5763 262.449 53.2646V25.9276C262.449 25.616 262.186 25.3622 261.863 25.3622H257.718C257.395 25.3622 257.132 25.616 257.132 25.9276ZM251.269 50.0326C248.029 50.0326 245.406 47.2151 245.406 43.7421C245.406 40.2692 248.029 37.4516 251.269 37.4516C254.508 37.4516 257.132 40.2692 257.132 43.7421C257.132 47.2151 254.508 50.0326 251.269 50.0326Z" fill="#2D8341"/>
<path d="M286.501 26.114C286.178 26.114 285.915 26.3678 285.915 26.6795V44.1438C285.915 47.4914 282.879 49.7339 279.13 49.7339C275.381 49.7339 272.344 47.379 272.344 44.1438V26.6795C272.344 26.3678 272.081 26.114 271.758 26.114H267.367C267.044 26.114 266.781 26.3678 266.781 26.6795V41.58V44.0602C266.781 44.0892 266.781 44.1181 266.781 44.147C266.781 50.0391 272.308 54.3249 279.126 54.3249C285.945 54.3249 291.472 50.2383 291.472 44.147V26.6795C291.472 26.3678 291.209 26.114 290.886 26.114H286.494H286.501Z" fill="#2D8341"/>
<path d="M294.266 34.1778L302.426 53.3192C302.486 53.4573 302.486 53.6115 302.426 53.7497L299.22 61.2193C299.06 61.5919 299.343 61.9999 299.759 61.9999H304.111C304.35 61.9999 304.567 61.8586 304.653 61.6433L315.957 34.1682C316.11 33.7987 315.827 33.3939 315.414 33.3939H311.183C310.939 33.3939 310.72 33.5385 310.633 33.7602L305.369 47.3018L300.012 33.757C299.926 33.5385 299.709 33.3939 299.466 33.3939H294.805C294.389 33.3939 294.106 33.8019 294.262 34.1746L294.266 34.1778Z" fill="#2D8341"/>
</g>
<defs>
<clipPath id="clip0_218_529">
<rect width="68" height="85" fill="white"/>
</clipPath>
<clipPath id="clip1_218_529">
<rect width="229" height="38" fill="white" transform="translate(87 24)"/>
</clipPath>
</defs>
</svg>
