<svg width="66" height="66" viewBox="0 0 66 66" fill="none" xmlns="http://www.w3.org/2000/svg">
<path d="M47.557 45.7769L50.1763 44.7136C51.4453 44.1977 52.0267 42.7129 51.4391 41.4671C50.8952 40.3032 49.5324 39.7809 48.3509 40.2843L38.5738 44.4745" stroke="white" stroke-width="2" stroke-miterlimit="10" stroke-linecap="round"/>
<path d="M42.8497 47.6834L33.9415 51.2948C32.4224 51.9114 30.7783 52.1253 29.153 51.9303L19.5697 50.7537H14.3311V39.3846H19.4822L20.9137 39.0512C23.483 38.4535 26.1648 38.5541 28.6841 39.3406C28.9029 39.4098 29.1155 39.4979 29.3155 39.6111L37.9049 44.4369C38.7676 44.9213 39.1551 45.9594 38.8238 46.8969C38.455 47.9413 37.3172 48.5013 36.2733 48.149L29.2468 45.777H26.9088" stroke="white" stroke-width="2" stroke-miterlimit="10" stroke-linecap="round"/>
<path d="M45.4378 41.1903C45.369 40.8317 44.9689 38.9253 43.1748 37.755C40.8555 36.2513 38.33 37.3461 38.1424 37.4279C38.0737 37.3083 36.5671 34.7853 33.6977 34.7602C31.416 34.7413 29.9969 36.3205 29.7844 36.5659C29.3843 36.4275 27.9152 35.9619 26.2524 36.6225C24.9959 37.1259 24.2895 38.013 24.0144 38.3968" stroke="white" stroke-width="2" stroke-miterlimit="10" stroke-linecap="round"/>
<path d="M26.79 20.7485L29.0967 22.1768C30.7408 23.196 32.1161 24.5991 33.0976 26.2726C33.4164 26.8137 33.5852 27.4366 33.5852 28.0658V34.7664" stroke="white" stroke-width="2" stroke-miterlimit="10" stroke-linecap="round"/>
<path d="M17.7943 15.4006C18.2069 15.2433 22.5015 12.5379 26.7587 15.0923C29.9094 16.9798 29.0405 20.585 30.0844 22.7619L30.0219 22.8689C27.6277 22.9821 24.8896 25.4736 21.7389 23.5861C17.4755 21.038 17.788 15.948 17.7255 15.5076" stroke="white" stroke-width="2" stroke-miterlimit="10" stroke-linecap="round"/>
<path d="M47.457 16.5646C47.4194 16.9295 47.7883 21.0883 44.3563 23.2778C41.8182 24.8948 39.5177 22.9192 37.5486 22.8752L37.4923 22.7871C38.2987 20.9814 37.5048 18.0432 40.0491 16.4262C43.4811 14.2367 47.0631 16.357 47.4069 16.4765" stroke="white" stroke-width="2" stroke-miterlimit="10" stroke-linecap="round"/>
<path d="M41.1681 20.7485L36.7921 23.1331C36.1857 23.4665 35.6294 23.8881 35.148 24.3851C34.873 24.6683 34.6167 24.9828 34.3791 25.3729C34.0603 25.9014 33.8665 26.4929 33.7602 27.0969L33.5914 28.0595" stroke="white" stroke-width="2" stroke-miterlimit="10" stroke-linecap="round"/>
</svg>
