<svg width="66" height="66" viewBox="0 0 66 66" fill="none" xmlns="http://www.w3.org/2000/svg">
<path d="M28.3967 21.2733C32.9816 23.2131 36.1998 27.7539 36.1998 33.0441C36.1998 40.0977 30.4761 45.8215 23.4224 45.8215C16.3688 45.8215 10.645 40.1051 10.645 33.0441C10.645 27.7906 13.8192 23.2718 18.3526 21.3101" stroke="white" stroke-width="2" stroke-miterlimit="10" stroke-linecap="round"/>
<path d="M23.4224 41.3322C27.9998 41.3322 31.7105 37.6215 31.7105 33.0441C31.7105 28.4668 27.9998 24.7561 23.4224 24.7561C18.8451 24.7561 15.1344 28.4668 15.1344 33.0441C15.1344 37.6215 18.8451 41.3322 23.4224 41.3322Z" stroke="white" stroke-width="2" stroke-miterlimit="10" stroke-linecap="round"/>
<path d="M23.4225 35.8435C24.9685 35.8435 26.2219 34.5901 26.2219 33.044C26.2219 31.498 24.9685 30.2446 23.4225 30.2446C21.8764 30.2446 20.623 31.498 20.623 33.044C20.623 34.5901 21.8764 35.8435 23.4225 35.8435Z" stroke="white" stroke-width="2" stroke-miterlimit="10" stroke-linecap="round"/>
<path d="M47.7281 50.2007C47.7281 48.6503 48.9846 47.4012 50.5276 47.4012C52.0705 47.4012 53.327 48.6577 53.327 50.2007C53.327 51.7436 52.0705 53.0001 50.5276 53.0001C48.9846 53.0001 47.7281 51.7436 47.7281 50.2007Z" stroke="white" stroke-width="2" stroke-miterlimit="10" stroke-linecap="round"/>
<path d="M47.7281 15.7994C47.7281 14.2491 48.9846 13 50.5276 13C52.0705 13 53.327 14.2564 53.327 15.7994C53.327 17.3424 52.0705 18.5988 50.5276 18.5988C48.9846 18.5988 47.7281 17.3424 47.7281 15.7994Z" stroke="white" stroke-width="2" stroke-miterlimit="10" stroke-linecap="round"/>
<path d="M47.7281 33C47.7281 30.8913 49.4328 29.1866 51.5415 29.1866C53.6503 29.1866 55.3549 30.8913 55.3549 33C55.3549 35.1088 53.6503 36.8134 51.5415 36.8134C49.4328 36.8134 47.7281 35.1088 47.7281 33Z" stroke="white" stroke-width="2" stroke-miterlimit="10" stroke-linecap="round"/>
<path d="M23.4224 21.626C24.0635 21.626 24.5833 21.1063 24.5833 20.4651C24.5833 19.824 24.0635 19.3042 23.4224 19.3042C22.7812 19.3042 22.2615 19.824 22.2615 20.4651C22.2615 21.1063 22.7812 21.626 23.4224 21.626Z" fill="white"/>
<path d="M26.2218 33.0442H46.8023" stroke="white" stroke-width="2" stroke-miterlimit="10" stroke-linecap="round"/>
<path d="M30.4099 28.5915L48.2571 17.4453" stroke="white" stroke-width="2" stroke-miterlimit="10" stroke-linecap="round"/>
<path d="M30.4099 37.504L47.7281 48.6797" stroke="white" stroke-width="2" stroke-miterlimit="10" stroke-linecap="round"/>
</svg>
