<svg width="66" height="66" viewBox="0 0 66 66" fill="none" xmlns="http://www.w3.org/2000/svg">
<path d="M32.9827 40.677C35.2043 40.677 37.0054 38.8661 37.0054 36.6324C37.0054 34.3986 35.2043 32.5878 32.9827 32.5878C30.761 32.5878 28.96 34.3986 28.96 36.6324C28.96 38.8661 30.761 40.677 32.9827 40.677Z" stroke="white" stroke-width="2" stroke-miterlimit="10" stroke-linecap="round"/>
<path d="M26.517 51.1964V46.8481C26.517 44.6695 28.278 42.8989 30.4448 42.8989H35.5293C37.696 42.8989 39.457 44.6695 39.457 46.8481V51.1964" stroke="white" stroke-width="2" stroke-miterlimit="10" stroke-linecap="round"/>
<path d="M44.6623 42.708C46.6504 42.708 48.2621 41.0876 48.2621 39.0887C48.2621 37.0898 46.6504 35.4694 44.6623 35.4694C42.6743 35.4694 41.0626 37.0898 41.0626 39.0887C41.0626 41.0876 42.6743 42.708 44.6623 42.708Z" stroke="white" stroke-width="2" stroke-miterlimit="10" stroke-linecap="round"/>
<path d="M41.3993 45.0948C41.7101 44.9993 42.0467 44.9559 42.3834 44.9559H46.9327C48.875 44.9559 50.4461 46.5356 50.4461 48.4885V51.2051" stroke="white" stroke-width="2" stroke-miterlimit="10" stroke-linecap="round"/>
<path d="M21.3376 42.708C23.3256 42.708 24.9373 41.0876 24.9373 39.0887C24.9373 37.0898 23.3256 35.4694 21.3376 35.4694C19.3495 35.4694 17.7379 37.0898 17.7379 39.0887C17.7379 41.0876 19.3495 42.708 21.3376 42.708Z" stroke="white" stroke-width="2" stroke-miterlimit="10" stroke-linecap="round"/>
<path d="M24.6006 45.0948C24.2898 44.9993 23.9532 44.9559 23.6165 44.9559H19.0672C17.1249 44.9559 15.5538 46.5356 15.5538 48.4885V51.2051" stroke="white" stroke-width="2" stroke-miterlimit="10" stroke-linecap="round"/>
<path d="M23.5992 32.7959C25.153 29.1159 28.7786 26.5294 33.0085 26.5294C37.2384 26.5294 40.864 29.1159 42.4178 32.7959" stroke="white" stroke-width="2" stroke-miterlimit="10" stroke-linecap="round"/>
<path d="M51.9999 36.9014V31.0862C51.9999 30.7737 51.7495 30.522 51.4388 30.522H47.4333C47.1916 30.522 46.9758 30.3658 46.8981 30.1314L45.7586 26.625C45.6982 26.4253 45.7414 26.217 45.8795 26.0608L48.4433 23.3007C48.6591 23.0751 48.6419 22.7105 48.4174 22.5022L44.0926 18.4576C43.8681 18.2493 43.5228 18.258 43.3157 18.475L40.5447 21.2611C40.3893 21.4173 40.1648 21.4694 39.9577 21.3913L37.1262 20.3931C36.9018 20.315 36.7464 20.098 36.7464 19.8637V15.3591C36.7464 15.0466 36.4961 14.7949 36.1853 14.7949H33.2244H32.7841H29.8232C29.5124 14.7949 29.2621 15.0466 29.2621 15.3591V19.855C29.2621 20.098 29.1154 20.3063 28.8823 20.3845L26.0508 21.3826C25.8437 21.452 25.6192 21.3999 25.4638 21.2524L22.6928 18.4663C22.477 18.2493 22.1317 18.2406 21.9159 18.449L17.5911 22.4936C17.3666 22.7105 17.3494 23.0664 17.5652 23.2921L20.129 26.0521C20.2671 26.1997 20.3189 26.4166 20.2499 26.6163L19.1104 30.1228C19.0327 30.3571 18.8169 30.5133 18.5752 30.5133H14.5611C14.2503 30.5133 14 30.765 14 31.0775V36.8927" stroke="white" stroke-width="2" stroke-miterlimit="10" stroke-linecap="round"/>
</svg>
