<svg width="33" height="33" viewBox="0 0 33 33" fill="none" xmlns="http://www.w3.org/2000/svg">
<path d="M15.6833 12.171L14.4955 9.13558C14.3455 8.75225 13.9759 8.5 13.5642 8.5H10.3221C9.88244 8.5 9.49146 8.78575 9.39176 9.21397C8.76726 11.8962 8.42284 17.2845 12.1265 21.0702C15.7971 24.8222 20.663 24.7448 23.2423 24.2696C23.6917 24.1868 24 23.7847 24 23.3278V19.8143C24 19.2979 23.6067 18.8664 23.0925 18.8186L20.0228 18.5333C19.6091 18.4949 19.2146 18.7164 19.032 19.0897L18.7615 19.6427C18.5937 19.9858 18.2418 20.2028 17.8741 20.0995C17.0548 19.8695 15.8809 19.2729 15.0949 18.4695C14.2899 17.6467 13.7856 16.4081 13.54 15.5687C13.4385 15.222 13.5689 14.8568 13.8439 14.6226L15.4005 13.2966C15.7251 13.0201 15.8387 12.5681 15.6833 12.171Z" stroke="#2D8341"/>
</svg>
