<svg width="66" height="66" viewBox="0 0 66 66" fill="none" xmlns="http://www.w3.org/2000/svg">
<path d="M33.6259 14.5757L37.0837 23.466C37.3669 24.1888 38.045 24.6807 38.82 24.7179L48.3438 25.1949C49.1635 25.2396 49.4988 26.268 48.8654 26.7822L41.4804 32.8183C40.8768 33.3102 40.6234 34.1075 40.8246 34.8527L43.3136 44.056C43.5297 44.846 42.6504 45.4868 41.9648 45.0472L33.9389 39.8903C33.2906 39.473 32.4485 39.473 31.8002 39.8903L23.8116 45.0993C23.126 45.5465 22.2466 44.913 22.4553 44.1231L24.8772 34.8975C25.071 34.1448 24.8101 33.3549 24.2065 32.863L16.7843 26.879C16.1434 26.3648 16.4787 25.329 17.2985 25.2843L26.8222 24.7403C27.5972 24.6956 28.2679 24.2037 28.5511 23.4809L31.9567 14.5757C32.2473 13.8081 33.3353 13.8081 33.6334 14.5757H33.6259Z" stroke="white" stroke-width="2" stroke-miterlimit="10" stroke-linecap="round"/>
<path d="M32.8658 52V44.1381" stroke="white" stroke-width="2" stroke-miterlimit="10" stroke-linecap="round"/>
<path d="M40.1987 20.8577L44.7668 14.4564" stroke="white" stroke-width="2" stroke-miterlimit="10" stroke-linecap="round"/>
<path d="M25.2796 20.7907L20.8381 14.2999" stroke="white" stroke-width="2" stroke-miterlimit="10" stroke-linecap="round"/>
<path d="M21.0245 35.3669L13.6172 37.9975" stroke="white" stroke-width="2" stroke-miterlimit="10" stroke-linecap="round"/>
<path d="M44.8562 34.808L52.3828 37.0883" stroke="white" stroke-width="2" stroke-miterlimit="10" stroke-linecap="round"/>
</svg>
