<svg width="33" height="33" viewBox="0 0 33 33" fill="none" xmlns="http://www.w3.org/2000/svg">
<path d="M23.9899 13.319C23.8759 13.409 21.8632 14.563 21.8632 17.129C21.8632 20.097 24.4243 21.147 24.501 21.173C24.4892 21.237 24.0941 22.611 23.1506 24.011C22.3093 25.243 21.4307 26.473 20.0941 26.473C18.7575 26.473 18.4135 25.683 16.8705 25.683C15.3668 25.683 14.8322 26.499 13.6096 26.499C12.387 26.499 11.5339 25.359 10.5531 23.959C9.41696 22.315 8.49902 19.761 8.49902 17.337C8.49902 13.449 10.9835 11.387 13.4288 11.387C14.728 11.387 15.8111 12.255 16.6268 12.255C17.4032 12.255 18.614 11.335 20.0921 11.335C20.6523 11.335 22.6651 11.387 23.9899 13.319ZM19.3904 9.68898C20.0017 8.95098 20.4342 7.92698 20.4342 6.90298C20.4342 6.76098 20.4224 6.61698 20.3968 6.50098C19.4022 6.53898 18.2189 7.17498 17.5054 8.01698C16.9452 8.66498 16.4224 9.68898 16.4224 10.727C16.4224 10.883 16.4479 11.039 16.4597 11.089C16.5226 11.101 16.6248 11.115 16.727 11.115C17.6194 11.115 18.7418 10.507 19.3904 9.68898Z" fill="black"/>
</svg>
