<svg width="33" height="33" viewBox="0 0 33 33" fill="none" xmlns="http://www.w3.org/2000/svg">
<path d="M9 13.9577C9 13.2184 9.10731 12.5045 9.31133 11.8282C9.42277 11.4588 9.81419 11.2489 10.1857 11.3597C10.557 11.4706 10.7675 11.8598 10.6561 12.2291C10.4916 12.7744 10.4044 13.3533 10.4044 13.9577C10.4044 14.602 10.6621 15.4993 11.1361 16.5693C11.6023 17.6215 12.2453 18.7704 12.943 19.8948C14.2494 22 15.7197 23.9706 16.4993 24.9836C17.2788 23.9708 18.7504 22.0004 20.057 19.8948C20.7547 18.7705 21.3971 17.6215 21.8632 16.5693C22.3373 15.4992 22.5956 14.602 22.5956 13.9577C22.5956 10.6124 19.8642 7.89652 16.5 7.89648C14.6269 7.89648 12.9567 8.73077 11.8356 10.0512C11.5853 10.3457 11.1423 10.3831 10.846 10.1344C10.5497 9.88563 10.5129 9.4451 10.7631 9.15046C12.1399 7.52896 14.1962 6.5 16.5 6.5C20.6399 6.50003 24 9.84118 24 13.9577C24 14.9014 23.6431 16.0172 23.149 17.1325C22.647 18.2657 21.9679 19.4745 21.2522 20.6278C19.8206 22.9349 18.2064 25.0734 17.4655 26.0283L17.4662 26.029C16.9804 26.657 16.0196 26.657 15.5338 26.029V26.0283C14.7928 25.0733 13.1793 22.9347 11.7478 20.6278C11.0321 19.4745 10.3531 18.2657 9.85101 17.1325C9.35689 16.0172 9.00001 14.9014 9 13.9577Z" fill="white"/>
<path d="M18.9403 14.1916C18.9402 12.8513 17.8477 11.7648 16.4998 11.7648C15.1519 11.7649 14.0593 12.8514 14.0592 14.1916C14.0592 15.532 15.1519 16.6183 16.4998 16.6184C17.8477 16.6184 18.9403 15.532 18.9403 14.1916ZM20.3447 14.1916C20.3447 16.3033 18.6234 18.0149 16.4998 18.0149C14.3762 18.0148 12.6548 16.3032 12.6548 14.1916C12.6549 12.0801 14.3763 10.3684 16.4998 10.3683C18.6233 10.3683 20.3447 12.0801 20.3447 14.1916Z" fill="white"/>
</svg>
