<svg width="66" height="66" viewBox="0 0 66 66" fill="none" xmlns="http://www.w3.org/2000/svg">
<path d="M18.1876 21.9204V51.7289C18.1876 52.4257 18.7542 53 19.4587 53H46.5414C47.2381 53 47.8124 52.4334 47.8124 51.7289V14.2711C47.8124 13.5743 47.2458 13 46.5414 13H27.0544C26.7175 13 26.3959 13.1378 26.1509 13.3752L18.5552 21.0245C18.3178 21.2619 18.1876 21.5835 18.1876 21.9204Z" stroke="white" stroke-width="2" stroke-miterlimit="10" stroke-linecap="round"/>
<path d="M18.1876 21.392H25.4541C26.1049 21.392 26.6333 20.8637 26.6333 20.2129V13" stroke="white" stroke-width="2" stroke-miterlimit="10" stroke-linecap="round"/>
<path d="M31.2504 28.8116C33.7312 31.2925 32.8354 36.2006 32.8354 36.2006C32.8354 36.2006 27.9273 37.0888 25.4464 34.6156C22.9655 32.1424 23.8614 27.2266 23.8614 27.2266C23.8614 27.2266 28.7695 26.3384 31.2504 28.8116Z" stroke="white" stroke-width="2" stroke-miterlimit="10" stroke-linecap="round"/>
<path d="M40.5383 34.6079C38.0575 37.0888 33.1493 36.1929 33.1493 36.1929C33.1493 36.1929 32.2611 31.2848 34.7343 28.8039C37.2075 26.3231 42.1233 27.2189 42.1233 27.2189C42.1233 27.2189 43.0115 32.1271 40.5383 34.6079Z" stroke="white" stroke-width="2" stroke-miterlimit="10" stroke-linecap="round"/>
<path d="M32.9962 35.611V41.346" stroke="white" stroke-width="2" stroke-miterlimit="10" stroke-linecap="round"/>
<path d="M27.2841 45.366C27.2841 43.6279 29.8415 41.3538 32.9962 41.3538C36.1508 41.3538 38.7082 43.6662 38.7082 45.366" stroke="white" stroke-width="2" stroke-miterlimit="10" stroke-linecap="round"/>
<path d="M24.0681 45.366H41.9242" stroke="white" stroke-width="2" stroke-miterlimit="10" stroke-linecap="round"/>
<path d="M31.0973 20.8867H42.9886" stroke="white" stroke-width="2" stroke-miterlimit="10" stroke-linecap="round"/>
<path d="M31.0973 18.0919H42.9886" stroke="white" stroke-width="2" stroke-miterlimit="10" stroke-linecap="round"/>
</svg>
