<svg width="66" height="66" viewBox="0 0 66 66" fill="none" xmlns="http://www.w3.org/2000/svg">
<path d="M21.8889 18.1661C24.5541 15.0079 28.5413 13 33 13C41.0243 13 47.5338 19.5023 47.5338 27.5338C47.5338 34.3576 37.0157 48.4984 33.8789 52.5713C33.4359 53.1429 32.5713 53.1429 32.1283 52.5713C28.9843 48.4984 18.4662 34.3576 18.4662 27.5338C18.4662 26.0904 18.6735 24.7042 19.0665 23.3894" stroke="white" stroke-width="2" stroke-miterlimit="10" stroke-linecap="round"/>
<path d="M32.9999 34.7506C36.7134 34.7506 39.7238 31.7403 39.7238 28.0268C39.7238 24.3133 36.7134 21.303 32.9999 21.303C29.2865 21.303 26.2761 24.3133 26.2761 28.0268C26.2761 31.7403 29.2865 34.7506 32.9999 34.7506Z" stroke="white" stroke-width="2" stroke-miterlimit="10" stroke-linecap="round"/>
</svg>
