<svg width="20" height="16" viewBox="0 0 20 16" fill="none" xmlns="http://www.w3.org/2000/svg">
<mask id="path-1-inside-1_0_7" fill="white">
<path d="M18.8127 1.51853C19.2674 1.16709 19.9549 1.28567 19.9951 1.85895C19.9983 1.90554 20 1.95258 20 2V13.2383C20 14.3429 19.1046 15.2383 18 15.2383H2C0.895431 15.2383 0 14.3429 0 13.2383V2C1.86068e-06 1.99064 6.81073e-05 1.9813 0.000198317 1.97197C0.00858938 1.37088 0.731475 1.24795 1.18953 1.63727L8.03906 7.45898C8.89631 8.18727 10.147 8.21614 11.0371 7.52832L18.8127 1.51853ZM18 0C18.4501 1.04981e-07 18.52 0.542137 18.1639 0.817361L10.4551 6.77539C9.9211 7.18797 9.17057 7.17015 8.65625 6.7334L1.80174 0.906761C1.42854 0.589522 1.51018 7.14101e-09 2 0H18Z"/>
</mask>
<path d="M20 2H21V1.9998L20 2ZM18 15.2383V16.2383V15.2383ZM2 15.2383L2 16.2383H2V15.2383ZM0 2L-1 1.9998V2H0ZM8.03906 7.45898L7.39144 8.22095L7.39161 8.22109L8.03906 7.45898ZM11.0371 7.52832L11.6486 8.3196L11.6486 8.31954L11.0371 7.52832ZM18 0V-1V0ZM10.4551 6.77539L11.0665 7.56671L11.0666 7.56662L10.4551 6.77539ZM8.65625 6.7334L8.00858 7.49532L8.00896 7.49565L8.65625 6.7334ZM2 0V-1V0ZM18.1639 0.817361L18.7754 1.60859L18.1639 0.817361ZM19.9951 1.85895L20.9926 1.78907L19.9951 1.85895ZM19.9951 1.85895L18.9975 1.92883C18.9991 1.95225 19 1.97605 19 2.0002L20 2L21 1.9998C21 1.9291 20.9975 1.85883 20.9926 1.78907L19.9951 1.85895ZM20 2H19V13.2383H20H21V2H20ZM20 13.2383H19C19 13.7906 18.5523 14.2383 18 14.2383V15.2383V16.2383C19.6569 16.2383 21 14.8951 21 13.2383H20ZM18 15.2383V14.2383H2V15.2383V16.2383H18V15.2383ZM2 15.2383L2 14.2383C1.44772 14.2383 1 13.7906 1 13.2383H0H-1C-1 14.8951 0.343146 16.2383 2 16.2383L2 15.2383ZM0 13.2383H1V2H0H-1V13.2383H0ZM0 2L1 2.0002C1 1.99543 1.00003 1.99067 1.0001 1.98593L0.000198317 1.97197L-0.999704 1.95801C-0.999898 1.97193 -0.999997 1.98586 -1 1.9998L0 2ZM1.18953 1.63727L0.541904 2.39923L7.39144 8.22095L8.03906 7.45898L8.68669 6.69702L1.83715 0.875309L1.18953 1.63727ZM8.03906 7.45898L7.39161 8.22109C8.609 9.25534 10.3847 9.29623 11.6486 8.3196L11.0371 7.52832L10.4257 6.73704C9.9093 7.13605 9.18362 7.1192 8.68652 6.69688L8.03906 7.45898ZM11.0371 7.52832L11.6486 8.31954L19.4243 2.30974L18.8127 1.51853L18.2012 0.727307L10.4256 6.7371L11.0371 7.52832ZM18.1639 0.817361L17.5524 0.0261366L9.84355 5.98417L10.4551 6.77539L11.0666 7.56662L18.7754 1.60859L18.1639 0.817361ZM10.4551 6.77539L9.84367 5.98408C9.68396 6.10747 9.4583 6.10257 9.30354 5.97115L8.65625 6.7334L8.00896 7.49565C8.88285 8.23774 10.1582 8.26847 11.0665 7.56671L10.4551 6.77539ZM8.65625 6.7334L9.30392 5.97148L2.44941 0.144839L1.80174 0.906761L1.15408 1.66868L8.00858 7.49532L8.65625 6.7334ZM2 0V1H18V0V-1H2V0ZM1.80174 0.906761L2.44941 0.144839C2.5175 0.20272 2.59553 0.32938 2.56019 0.518288C2.54115 0.62007 2.48371 0.751544 2.35834 0.858335C2.22743 0.969845 2.08651 1 2 1V0V-1C1.66858 -1 1.33378 -0.896155 1.06146 -0.664196C0.79468 -0.436956 0.648316 -0.138274 0.594289 0.150543C0.488977 0.713523 0.71278 1.29356 1.15408 1.66868L1.80174 0.906761ZM18 0V1C17.9038 1 17.7532 0.966938 17.6146 0.848113C17.4812 0.733729 17.4187 0.590817 17.3987 0.474986C17.3611 0.256284 17.4572 0.0996784 17.5524 0.0261366L18.1639 0.817361L18.7754 1.60859C19.2267 1.25982 19.4659 0.694534 19.3698 0.135957C19.3206 -0.149811 19.1785 -0.445459 18.9165 -0.670094C18.6494 -0.899171 18.3213 -1 18 -1V0ZM0.000198317 1.97197L1.0001 1.98593C0.999271 2.04539 0.975726 2.15422 0.88863 2.25718C0.807247 2.35339 0.714547 2.39246 0.658988 2.40575C0.605531 2.41855 0.573537 2.41209 0.563917 2.40963C0.55203 2.40659 0.545642 2.40241 0.541904 2.39923L1.18953 1.63727L1.83715 0.875309C1.38303 0.489335 0.765021 0.323902 0.193492 0.46068C-0.101094 0.531181 -0.404717 0.689355 -0.638316 0.965502C-0.877626 1.2484 -0.994679 1.59801 -0.999704 1.95801L0.000198317 1.97197ZM19.9951 1.85895L20.9926 1.78907C20.9388 1.02039 20.4042 0.519668 19.7978 0.370802C19.2468 0.235565 18.6518 0.379043 18.2012 0.727307L18.8127 1.51853L19.4243 2.30974C19.4206 2.31257 19.4153 2.3157 19.4054 2.31793C19.3974 2.31976 19.369 2.32492 19.3209 2.31313C19.2711 2.3009 19.188 2.26614 19.1122 2.18146C19.031 2.09073 19.0019 1.99115 18.9975 1.92883L19.9951 1.85895Z" fill="#2D8341" mask="url(#path-1-inside-1_0_7)"/>
</svg>
