<svg width="17" height="24" viewBox="0 0 17 24" fill="none" xmlns="http://www.w3.org/2000/svg">
<path d="M8.5 0C13.1929 7.06892e-08 17 3.80285 17 8.5C17 9.54233 16.6043 10.8111 16.0254 12.125C15.4411 13.4509 14.6472 14.8734 13.8057 16.2373C12.1223 18.9656 10.223 21.4984 9.35156 22.6299L9.35059 22.6309C8.921 23.1852 8.0829 23.1852 7.65332 22.6309L6.82422 21.5381C5.84237 20.2204 4.45829 18.2837 3.19531 16.2373C2.35349 14.8733 1.55996 13.451 0.975586 12.125C0.396509 10.811 3.31593e-08 9.5424 0 8.5C3.44968e-06 7.65709 0.121336 6.84541 0.351562 6.0752C0.424643 5.83169 0.681143 5.69295 0.924805 5.76562C1.1687 5.83854 1.30728 6.09594 1.23438 6.33984C1.02989 7.02402 0.921878 7.74626 0.921875 8.5C0.921875 9.34477 1.25329 10.4695 1.81934 11.7539C2.3801 13.0263 3.14962 14.4083 3.97949 15.7529C5.63851 18.441 7.51591 20.9446 8.38184 22.0664L8.40723 22.0928C8.4713 22.1439 8.56916 22.1347 8.62207 22.0664C9.48639 20.9441 11.3631 18.4408 13.0215 15.7529C13.8511 14.4083 14.62 13.0262 15.1807 11.7539C15.7467 10.4695 16.0781 9.34477 16.0781 8.5C16.0781 4.31229 12.6841 0.921875 8.5 0.921875C6.17535 0.921886 4.09651 1.96854 2.70605 3.61621C2.54181 3.81038 2.25105 3.83496 2.05664 3.6709C1.86217 3.50674 1.83789 3.21602 2.00195 3.02148C3.55994 1.17529 5.89214 1.08209e-05 8.5 0ZM8.5 4.59277C10.8085 4.59283 12.6795 6.46401 12.6797 8.77246C12.6797 11.081 10.8086 12.9521 8.5 12.9521C6.19144 12.9521 4.32031 11.081 4.32031 8.77246C4.32046 6.46401 6.19153 4.59283 8.5 4.59277ZM8.5 5.51465C6.70068 5.51471 5.24234 6.97316 5.24219 8.77246C5.24219 10.5719 6.70058 12.0302 8.5 12.0303C10.2994 12.0302 11.7578 10.5719 11.7578 8.77246C11.7577 6.97316 10.2993 5.51471 8.5 5.51465Z" fill="#2D8341"/>
</svg>
