<svg width="36" height="37" viewBox="0 0 36 37" fill="none" xmlns="http://www.w3.org/2000/svg">
<path d="M4.66149 4.66156C10.877 -1.55393 20.9551 -1.55381 27.1706 4.66156C33.0704 10.5613 33.3682 19.9399 28.0681 26.1932L35.6118 33.735L35.7026 33.8356C36.1276 34.3565 36.0974 35.1263 35.6118 35.6119C35.1262 36.0975 34.3565 36.1277 33.8355 35.7027L33.7349 35.6119L26.1931 28.0681C19.9398 33.3683 10.5612 33.0704 4.66149 27.1707C-1.55387 20.9551 -1.554 10.8771 4.66149 4.66156ZM25.2947 6.53748C20.1151 1.35805 11.717 1.35792 6.53742 6.53748C1.35785 11.717 1.35799 20.1151 6.53742 25.2948C11.7171 30.4744 20.1151 30.4744 25.2947 25.2948C30.4744 20.1152 30.4744 11.7171 25.2947 6.53748Z" fill="white"/>
</svg>
